Coordinates
version=1
nRows=9
nColumns=36
inDegrees=yes

Units are S.I. units (second, meters, Newtons, ...)
If the header above contains a line with 'inDegrees', this indicates whether rotational values are in degrees (yes) or radians (no).

endheader
time	pelvis_tilt	pelvis_list	pelvis_rotation	pelvis_tx	pelvis_ty	pelvis_tz	hip_flexion_r	hip_adduction_r	hip_rotation_r	knee_angle_r	knee_angle_r_beta	ankle_angle_r	subtalar_angle_r	mtp_angle_r	hip_flexion_l	hip_adduction_l	hip_rotation_l	knee_angle_l	knee_angle_l_beta	ankle_angle_l	subtalar_angle_l	mtp_angle_l	lumbar_extension	lumbar_bending	lumbar_rotation	arm_flex_r	arm_add_r	arm_rot_r	elbow_flex_r	pro_sup_r	arm_flex_l	arm_add_l	arm_rot_l	elbow_flex_l	pro_sup_l
      0.00000000	      3.04543151	      0.63419272	     -1.06928099	     -0.84832245	      1.26734468	     -0.08315643	     -7.12187302	      0.25659117	      0.41025542	      4.41178316	      0.07700014	      4.27518743	    -11.03455202	     -6.06741817	     -7.17464830	     -0.09467746	     -0.22064600	      3.11902143	      0.05443719	     10.80444295	     -1.12295870	     -6.06741817	    -13.56122868	      1.75104268	     -1.32490415	     12.57658979	     -8.08915405	     28.90572161	     20.48902550	     70.24851122	      6.10054869	     -7.14927556	     16.74304720	     27.90803657	     67.17281510
      0.00416670	      1.03905013	      0.70995737	     -0.60687207	     -0.84728554	      1.26246615	     -0.08434067	     -5.34402659	      0.74259541	      1.24780640	      3.53170045	      0.06163980	      5.64287079	     -8.31556128	     -6.71002028	     -5.27294055	      0.26987760	      1.65410568	      2.54825326	      0.04447541	      9.50559363	     -0.76490475	     -6.71002028	    -10.35638775	      1.85381524	     -1.07983704	     11.01489535	     -7.34257471	     21.78866738	     20.44923703	     75.67705453	      5.85261785	     -6.36001775	     14.17956501	     27.26498906	     69.79190945
      0.00833330	      0.09018024	      1.04756520	     -0.61699710	     -0.84672517	      1.26086414	     -0.08396532	     -4.70948330	      0.52534692	      0.84118145	      2.56605001	      0.04478602	      6.01779069	     -8.20692453	     -6.91989618	     -4.43633166	      0.67382523	      1.99853755	      2.33329138	      0.04072362	      9.34411983	     -0.16517061	     -6.91989618	     -9.18262987	      1.13790904	     -0.93092885	     10.35791499	     -6.66367125	     19.68285024	     20.84890698	     73.29857083	      5.86992755	     -6.40818277	     13.06628374	     27.30029739	     68.22052734
      0.01250000	      0.20108908	      1.24814639	     -0.60765273	     -0.84760164	      1.26121172	     -0.08403402	     -5.01282254	      0.27338672	      1.11666189	      2.02063537	      0.03526674	      6.19377859	     -8.25497113	     -7.02407745	     -4.96018162	      1.00174758	      2.49742725	      1.58689286	      0.02769651	      9.02859746	     -0.23327735	     -7.02407745	     -9.42099508	      0.68320811	     -0.63604956	     10.04027377	     -6.28290522	     17.91669324	     21.07430988	     72.17078176	      6.18806159	     -6.38401261	     12.43730373	     27.07564638	     67.53325683
      0.01666670	      0.21631722	      1.28362087	     -0.62254404	     -0.84808255	      1.26251542	     -0.08396423	     -5.16782100	      0.24650398	      1.40960588	      1.70390791	      0.02973880	      6.17304541	     -8.68271411	     -7.12382687	     -5.16089468	      1.12467617	      3.02184697	      1.15160640	      0.02009932	      8.95011076	     -0.42618229	     -7.12382687	     -9.60905791	      0.56539152	     -0.31448794	      9.69892994	     -6.12409329	     16.41388782	     21.65202099	     70.90782458	      6.39865169	     -6.32578306	     12.00186774	     27.12180909	     66.75006548
      0.02083330	      0.36650898	      1.34424888	     -0.66138288	     -0.84797869	      1.26125256	     -0.08323237	     -5.41066222	      0.21197230	      1.90731676	      1.52506385	      0.02661739	      6.07426652	     -9.24802906	     -7.35088017	     -5.40674874	      1.23123709	      3.42975346	      0.96715853	      0.01688010	      9.03202382	     -0.67048718	     -7.35088017	     -9.89248608	      0.39309036	      0.49448084	      9.10219921	     -5.88001789	     11.83091601	     22.33443394	     77.58763473	      6.95470705	     -6.19446758	     12.05435491	     26.83982962	     69.92260637
      0.02500000	      0.50012329	      1.37511356	     -0.64108461	     -0.84850411	      1.26044013	     -0.08344233	     -5.62072862	      0.17908124	      2.25372748	      1.40456747	      0.02451433	      5.90613517	     -9.78493770	     -7.42653584	     -5.57850773	      1.28362881	      3.90559382	      0.88629359	      0.01546874	      9.12981364	     -1.01321289	     -7.42653584	    -10.14030857	      0.37126552	      0.62549180	      9.29252129	     -6.05189259	     13.51525880	     22.44215810	     73.61256477	      7.18444104	     -6.26418669	     13.00295792	     26.98402010	     67.59034244
      0.02916670	      0.57269196	      1.42382137	     -0.68983374	     -0.84818584	      1.26127854	     -0.08251897	     -5.75854357	      0.15184385	      2.70531140	      1.31250734	      0.02290757	      5.54430990	    -10.53070529	     -7.46454536	     -5.68665588	      1.31723133	      4.08147649	      0.86149273	      0.01503588	      9.15545750	     -1.15041012	     -7.46454536	    -10.18448884	      0.28844200	      0.88765360	      9.43670816	     -6.23052953	     15.29684604	     22.43565988	     71.27973635	      7.45584924	     -6.25496410	     13.74694992	     26.69446175	     66.25519789
      0.03333330	      0.58302101	      1.45520578	     -0.66046713	     -0.84753986	      1.26191445	     -0.08241364	     -5.83500414	      0.14396350	      2.96818455	      1.20214453	      0.02098138	      5.16374166	    -11.07659974	     -7.48629750	     -5.71069063	      1.33399645	      4.43212364	      0.85218719	      0.01487347	      9.01170081	     -1.45732126	     -7.48629750	    -10.14095730	      0.24196088	      0.99733616	      9.59262789	     -6.40720337	     17.18591558	     22.19174814	     69.06257412	      7.67654495	     -6.25411535	     14.70177243	     26.32215508	     65.01354859
